<svg width="737" height="159" viewBox="0 0 737 159" fill="none" xmlns="http://www.w3.org/2000/svg">
<g filter="url(#filter0_d_309_852)">
<rect x="25" y="21" width="104" height="104" rx="52" fill="white" shape-rendering="crispEdges"/>
<g clip-path="url(#clip0_309_852)">
<path d="M61.875 43.6125C58.0625 45.0375 54.625 46.3625 54.25 46.5625C53.2375 47.075 52.125 48.25 51.6 49.375C51.0125 50.6125 45 68.7125 45 69.25C45 70.375 45.9375 71.7125 46.9375 71.9875C47.2 72.05 49.7875 72.3 52.7 72.5125L58 72.925V87.125C58 99.5375 58.025 101.35 58.1875 101.587C58.575 102.137 63.5625 103.562 67.2875 104.175C70.925 104.787 72.7625 104.925 77.0625 104.925C81.3625 104.925 83.3875 104.762 86.875 104.175C90.5 103.562 95.4375 102.125 95.8125 101.587C95.975 101.35 96 99.625 96 87.125V72.9375L101.288 72.525C104.188 72.3 106.788 72.0625 107.062 71.9875C108.062 71.7125 109 70.3875 109 69.2375C109 69.0125 107.562 64.5125 105.812 59.25C103.463 52.2125 102.5 49.475 102.15 48.8875C101.588 47.9375 100.588 46.9875 99.6375 46.5125C99.25 46.3125 95.8375 45 92.05 43.575L85.175 41H76.9875H68.8125L61.875 43.6125ZM83.875 43.25C83.875 43.6125 83.3375 45.0125 82.95 45.6875C82.125 47.1 80.2875 48.4125 78.6125 48.8125C76.3 49.35 73.8125 48.6625 72.125 46.9875C71.3 46.175 70.8375 45.4375 70.4125 44.2875C69.8875 42.85 69.1125 43 77 43C83.7375 43 83.875 43 83.875 43.25ZM68.3 44.25C68.4125 44.7 68.7375 45.5375 69.025 46.125C69.45 46.975 69.775 47.4 70.625 48.25C71.825 49.45 72.85 50.1 74.3125 50.5875C75.2 50.8875 75.5 50.925 77 50.925C78.5 50.925 78.8 50.8875 79.6875 50.5875C81.15 50.1 82.175 49.45 83.375 48.25C84.225 47.4 84.55 46.975 84.975 46.125C85.2625 45.5375 85.5875 44.6875 85.7 44.2375L85.9 43.4125L86.8 43.75C87.3125 43.95 87.7 44.175 87.725 44.2875C87.8 44.65 87.025 46.6375 86.4125 47.65C83.6125 52.3375 77.6625 54.2625 72.6625 52.1C69.8625 50.875 67.6 48.4375 66.6 45.5625C66.4 44.975 66.25 44.4 66.275 44.2875C66.3 44.175 66.675 43.95 67.1875 43.75C67.675 43.5625 68.075 43.425 68.075 43.425C68.0875 43.4375 68.1875 43.8 68.3 44.25ZM64.6 45.85C65.8 49.8125 68.9 52.975 72.8875 54.3C74.5875 54.8625 75.9375 55.05 77.675 54.9625C80.05 54.8375 82.225 54.125 84.175 52.825C86.6375 51.1875 88.525 48.675 89.3875 45.875C89.55 45.3625 89.6875 44.9125 89.7 44.9C89.7625 44.8125 98.575 48.175 99 48.4375C99.5625 48.7875 100.3 49.6125 100.6 50.2125C100.737 50.475 102.237 54.8625 103.938 59.975C106.088 66.425 107 69.35 106.95 69.5625C106.913 69.725 106.763 69.925 106.638 70C106.425 70.1 97.45 70.875 96.375 70.875H96V67.25V63.6125L95.6875 63.3125C95.2875 62.9 94.7125 62.9 94.3125 63.3125L94 63.6125V81.975V100.337L92.725 100.725C89.625 101.675 86.5 102.3 82.85 102.712C80.175 103.012 73.825 103.012 71.15 102.712C67.525 102.3 64.6875 101.737 61.5375 100.8L60 100.337V81.975V63.6125L59.675 63.2875C59.4125 63.025 59.275 62.9875 58.9 63.05C58 63.1875 58 63.2125 58 67.2625V70.875H57.6625C56.6125 70.875 47.5625 70.1 47.3625 70C47.2375 69.925 47.0875 69.725 47.05 69.5625C47 69.35 47.9125 66.425 50.0625 59.975C51.7625 54.8625 53.2625 50.475 53.4 50.2125C53.7375 49.5375 54.575 48.65 55.1875 48.3375C55.6875 48.075 63.95 44.9125 64.1875 44.8875C64.2625 44.8875 64.45 45.3125 64.6 45.85Z" fill="#C92071"/>
</g>
</g>
<path d="M47.9262 146.383H45.7487C45.7089 146.101 45.6277 145.851 45.5051 145.632C45.3824 145.41 45.225 145.221 45.0328 145.065C44.8405 144.91 44.6185 144.79 44.3666 144.707C44.118 144.625 43.8479 144.583 43.5562 144.583C43.0292 144.583 42.5702 144.714 42.1791 144.976C41.788 145.234 41.4847 145.612 41.2693 146.109C41.0538 146.603 40.9461 147.203 40.9461 147.909C40.9461 148.635 41.0538 149.245 41.2693 149.739C41.488 150.232 41.7929 150.605 42.184 150.857C42.5751 151.109 43.0276 151.235 43.5413 151.235C43.8296 151.235 44.0964 151.197 44.3417 151.121C44.5903 151.045 44.8107 150.933 45.0029 150.788C45.1952 150.638 45.3543 150.458 45.4802 150.246C45.6095 150.034 45.699 149.792 45.7487 149.52L47.9262 149.53C47.8699 149.997 47.729 150.448 47.5036 150.882C47.2816 151.313 46.9816 151.699 46.6038 152.04C46.2293 152.379 45.7818 152.647 45.2615 152.846C44.7444 153.041 44.1594 153.139 43.5065 153.139C42.5983 153.139 41.7863 152.934 41.0704 152.523C40.3578 152.112 39.7944 151.517 39.3801 150.738C38.9691 149.959 38.7636 149.016 38.7636 147.909C38.7636 146.799 38.9724 145.854 39.39 145.075C39.8076 144.296 40.3744 143.703 41.0903 143.295C41.8062 142.884 42.6116 142.679 43.5065 142.679C44.0964 142.679 44.6433 142.762 45.1471 142.928C45.6542 143.093 46.1033 143.335 46.4944 143.653C46.8855 143.968 47.2037 144.354 47.449 144.812C47.6975 145.269 47.8566 145.793 47.9262 146.383ZM52.3577 153.144C51.8705 153.144 51.4363 153.06 51.0551 152.891C50.674 152.718 50.3724 152.465 50.1503 152.13C49.9316 151.792 49.8222 151.371 49.8222 150.867C49.8222 150.443 49.9001 150.087 50.0558 149.798C50.2116 149.51 50.4237 149.278 50.6922 149.102C50.9607 148.927 51.2656 148.794 51.607 148.705C51.9517 148.615 52.3129 148.552 52.6908 148.516C53.1349 148.469 53.4929 148.426 53.7646 148.386C54.0364 148.343 54.2336 148.28 54.3563 148.197C54.4789 148.115 54.5402 147.992 54.5402 147.83V147.8C54.5402 147.485 54.4408 147.241 54.2419 147.069C54.0464 146.897 53.768 146.81 53.4067 146.81C53.0255 146.81 52.7223 146.895 52.4969 147.064C52.2715 147.23 52.1224 147.438 52.0494 147.69L50.0906 147.531C50.1901 147.067 50.3856 146.666 50.6773 146.328C50.969 145.987 51.3451 145.725 51.8058 145.543C52.2699 145.357 52.8068 145.264 53.4166 145.264C53.8409 145.264 54.2469 145.314 54.6347 145.413C55.0258 145.513 55.3721 145.667 55.6737 145.876C55.9787 146.085 56.219 146.353 56.3946 146.681C56.5703 147.006 56.6581 147.395 56.6581 147.849V153H54.6496V151.941H54.5899C54.4673 152.18 54.3032 152.39 54.0977 152.572C53.8923 152.751 53.6453 152.892 53.357 152.995C53.0686 153.094 52.7355 153.144 52.3577 153.144ZM52.9642 151.683C53.2758 151.683 53.5509 151.621 53.7895 151.499C54.0281 151.373 54.2154 151.204 54.3513 150.991C54.4872 150.779 54.5551 150.539 54.5551 150.271V149.46C54.4888 149.503 54.3977 149.543 54.2817 149.58C54.169 149.613 54.0414 149.644 53.8989 149.674C53.7564 149.701 53.6138 149.725 53.4713 149.749C53.3288 149.768 53.1995 149.787 53.0835 149.803C52.835 149.84 52.6179 149.898 52.4323 149.977C52.2467 150.057 52.1025 150.165 51.9997 150.3C51.897 150.433 51.8456 150.599 51.8456 150.798C51.8456 151.086 51.95 151.306 52.1588 151.459C52.3709 151.608 52.6394 151.683 52.9642 151.683ZM59.0512 153V145.364H61.0697V146.711H61.1592C61.3183 146.263 61.5834 145.911 61.9546 145.652C62.3258 145.393 62.77 145.264 63.287 145.264C63.8107 145.264 64.2565 145.395 64.6244 145.657C64.9923 145.915 65.2375 146.267 65.3602 146.711H65.4397C65.5955 146.273 65.8772 145.924 66.2849 145.662C66.6959 145.397 67.1814 145.264 67.7416 145.264C68.4542 145.264 69.0325 145.491 69.4767 145.945C69.9241 146.396 70.1478 147.036 70.1478 147.864V153H68.0349V148.282C68.0349 147.858 67.9222 147.54 67.6968 147.327C67.4714 147.115 67.1897 147.009 66.8517 147.009C66.4672 147.009 66.1672 147.132 65.9518 147.377C65.7364 147.619 65.6286 147.939 65.6286 148.337V153H63.5754V148.237C63.5754 147.863 63.4677 147.564 63.2522 147.342C63.0401 147.12 62.76 147.009 62.412 147.009C62.1767 147.009 61.9646 147.069 61.7757 147.188C61.5901 147.304 61.4426 147.468 61.3332 147.68C61.2238 147.889 61.1691 148.134 61.1691 148.416V153H59.0512ZM72.5708 153V145.364H74.6887V153H72.5708ZM73.6347 144.379C73.3198 144.379 73.0497 144.275 72.8243 144.066C72.6022 143.854 72.4912 143.6 72.4912 143.305C72.4912 143.014 72.6022 142.763 72.8243 142.555C73.0497 142.343 73.3198 142.237 73.6347 142.237C73.9495 142.237 74.218 142.343 74.4401 142.555C74.6655 142.763 74.7781 143.014 74.7781 143.305C74.7781 143.6 74.6655 143.854 74.4401 144.066C74.218 144.275 73.9495 144.379 73.6347 144.379ZM83.4889 147.541L81.55 147.661C81.5168 147.495 81.4456 147.346 81.3362 147.213C81.2268 147.077 81.0827 146.969 80.9037 146.89C80.728 146.807 80.5175 146.766 80.2723 146.766C79.9442 146.766 79.6674 146.835 79.442 146.974C79.2166 147.11 79.104 147.293 79.104 147.521C79.104 147.704 79.1769 147.858 79.3227 147.984C79.4685 148.11 79.7188 148.211 80.0734 148.287L81.4555 148.565C82.1979 148.718 82.7515 148.963 83.116 149.301C83.4806 149.639 83.6629 150.083 83.6629 150.634C83.6629 151.134 83.5154 151.573 83.2204 151.951C82.9288 152.329 82.5277 152.624 82.0173 152.836C81.5102 153.045 80.9252 153.149 80.2623 153.149C79.2515 153.149 78.4461 152.939 77.8461 152.518C77.2496 152.094 76.8999 151.517 76.7971 150.788L78.8802 150.678C78.9432 150.987 79.0957 151.222 79.3376 151.384C79.5796 151.543 79.8895 151.623 80.2673 151.623C80.6385 151.623 80.9368 151.552 81.1622 151.409C81.3909 151.263 81.5069 151.076 81.5102 150.847C81.5069 150.655 81.4257 150.498 81.2666 150.375C81.1075 150.249 80.8622 150.153 80.5308 150.087L79.2084 149.823C78.4626 149.674 77.9075 149.415 77.5429 149.048C77.1816 148.68 77.001 148.211 77.001 147.641C77.001 147.15 77.1336 146.728 77.3987 146.373C77.6672 146.018 78.0434 145.745 78.5273 145.553C79.0145 145.36 79.5845 145.264 80.2375 145.264C81.202 145.264 81.961 145.468 82.5145 145.876C83.0713 146.283 83.3961 146.839 83.4889 147.541ZM89.2267 153.149C88.4411 153.149 87.765 152.99 87.1982 152.672C86.6348 152.35 86.2006 151.896 85.8957 151.31C85.5908 150.72 85.4383 150.022 85.4383 149.217C85.4383 148.431 85.5908 147.742 85.8957 147.148C86.2006 146.555 86.6298 146.093 87.1833 145.761C87.7401 145.43 88.3931 145.264 89.1421 145.264C89.6459 145.264 90.1149 145.345 90.5491 145.508C90.9866 145.667 91.3677 145.907 91.6926 146.229C92.0207 146.55 92.2759 146.955 92.4582 147.442C92.6405 147.926 92.7316 148.492 92.7316 149.142V149.724H86.2835V148.411H90.738C90.738 148.106 90.6717 147.836 90.5392 147.601C90.4066 147.366 90.2226 147.182 89.9873 147.049C89.7553 146.913 89.4852 146.845 89.1769 146.845C88.8554 146.845 88.5704 146.92 88.3218 147.069C88.0766 147.215 87.8843 147.412 87.7451 147.661C87.6059 147.906 87.5347 148.179 87.5313 148.481V149.729C87.5313 150.107 87.6009 150.433 87.7401 150.708C87.8827 150.983 88.0832 151.195 88.3417 151.344C88.6002 151.494 88.9068 151.568 89.2615 151.568C89.4968 151.568 89.7122 151.535 89.9078 151.469C90.1033 151.402 90.2707 151.303 90.4099 151.17C90.5491 151.038 90.6552 150.875 90.7281 150.683L92.6869 150.812C92.5874 151.283 92.3836 151.694 92.0754 152.045C91.7704 152.393 91.376 152.665 90.8921 152.861C90.4115 153.053 89.8564 153.149 89.2267 153.149ZM98.9255 145.364V146.955H94.3268V145.364H98.9255ZM95.3708 143.534H97.4887V150.653C97.4887 150.849 97.5186 151.001 97.5782 151.111C97.6379 151.217 97.7207 151.291 97.8268 151.335C97.9362 151.378 98.0621 151.399 98.2046 151.399C98.3041 151.399 98.4035 151.391 98.5029 151.374C98.6024 151.354 98.6786 151.339 98.7316 151.33L99.0647 152.906C98.9587 152.939 98.8095 152.977 98.6173 153.02C98.425 153.066 98.1914 153.094 97.9163 153.104C97.4059 153.124 96.9584 153.056 96.574 152.901C96.1928 152.745 95.8962 152.503 95.684 152.175C95.4719 151.847 95.3675 151.432 95.3708 150.932V143.534ZM103.233 153.144C102.745 153.144 102.311 153.06 101.93 152.891C101.549 152.718 101.247 152.465 101.025 152.13C100.807 151.792 100.697 151.371 100.697 150.867C100.697 150.443 100.775 150.087 100.931 149.798C101.087 149.51 101.299 149.278 101.567 149.102C101.836 148.927 102.141 148.794 102.482 148.705C102.827 148.615 103.188 148.552 103.566 148.516C104.01 148.469 104.368 148.426 104.64 148.386C104.911 148.343 105.109 148.28 105.231 148.197C105.354 148.115 105.415 147.992 105.415 147.83V147.8C105.415 147.485 105.316 147.241 105.117 147.069C104.921 146.897 104.643 146.81 104.282 146.81C103.901 146.81 103.597 146.895 103.372 147.064C103.147 147.23 102.997 147.438 102.924 147.69L100.966 147.531C101.065 147.067 101.261 146.666 101.552 146.328C101.844 145.987 102.22 145.725 102.681 145.543C103.145 145.357 103.682 145.264 104.292 145.264C104.716 145.264 105.122 145.314 105.51 145.413C105.901 145.513 106.247 145.667 106.549 145.876C106.854 146.085 107.094 146.353 107.27 146.681C107.445 147.006 107.533 147.395 107.533 147.849V153H105.525V151.941H105.465C105.342 152.18 105.178 152.39 104.973 152.572C104.767 152.751 104.52 152.892 104.232 152.995C103.944 153.094 103.611 153.144 103.233 153.144ZM103.839 151.683C104.151 151.683 104.426 151.621 104.665 151.499C104.903 151.373 105.09 151.204 105.226 150.991C105.362 150.779 105.43 150.539 105.43 150.271V149.46C105.364 149.503 105.273 149.543 105.157 149.58C105.044 149.613 104.916 149.644 104.774 149.674C104.631 149.701 104.489 149.725 104.346 149.749C104.204 149.768 104.075 149.787 103.959 149.803C103.71 149.84 103.493 149.898 103.307 149.977C103.122 150.057 102.977 150.165 102.875 150.3C102.772 150.433 102.721 150.599 102.721 150.798C102.721 151.086 102.825 151.306 103.034 151.459C103.246 151.608 103.514 151.683 103.839 151.683ZM116.28 147.541L114.341 147.661C114.308 147.495 114.237 147.346 114.127 147.213C114.018 147.077 113.874 146.969 113.695 146.89C113.519 146.807 113.309 146.766 113.063 146.766C112.735 146.766 112.458 146.835 112.233 146.974C112.008 147.11 111.895 147.293 111.895 147.521C111.895 147.704 111.968 147.858 112.114 147.984C112.26 148.11 112.51 148.211 112.864 148.287L114.247 148.565C114.989 148.718 115.542 148.963 115.907 149.301C116.272 149.639 116.454 150.083 116.454 150.634C116.454 151.134 116.306 151.573 116.011 151.951C115.72 152.329 115.319 152.624 114.808 152.836C114.301 153.045 113.716 153.149 113.053 153.149C112.042 153.149 111.237 152.939 110.637 152.518C110.041 152.094 109.691 151.517 109.588 150.788L111.671 150.678C111.734 150.987 111.887 151.222 112.129 151.384C112.371 151.543 112.68 151.623 113.058 151.623C113.43 151.623 113.728 151.552 113.953 151.409C114.182 151.263 114.298 151.076 114.301 150.847C114.298 150.655 114.217 150.498 114.058 150.375C113.899 150.249 113.653 150.153 113.322 150.087L111.999 149.823C111.254 149.674 110.698 149.415 110.334 149.048C109.973 148.68 109.792 148.211 109.792 147.641C109.792 147.15 109.925 146.728 110.19 146.373C110.458 146.018 110.834 145.745 111.318 145.553C111.805 145.36 112.376 145.264 113.028 145.264C113.993 145.264 114.752 145.468 115.305 145.876C115.862 146.283 116.187 146.839 116.28 147.541Z" fill="#474747"/>
<rect x="177" y="21" width="104" height="104" rx="52" fill="white"/>
<path d="M217.312 41.15C216.787 41.45 216.762 41.6125 216.75 43.9125V46.125L210.362 73.25C206.412 90.075 204 100.55 204.025 100.838C204.05 101.15 204.162 101.362 204.375 101.525C204.7 101.763 215.287 105 215.737 105C215.875 105 216.125 104.875 216.3 104.713C216.525 104.525 218.775 99.3875 224.075 87C228.187 77.4125 231.575 69.525 231.612 69.475C231.687 69.3875 236.375 80.175 236.375 80.4125C236.375 80.4625 235.225 80.5 233.812 80.5C231.25 80.5 231.237 80.5 230.937 80.8125L230.625 81.1125V86.3V91.4875L230.912 91.8125C231.162 92.1 231.625 92.2125 236.787 93.25C240.687 94.025 242.462 94.3375 242.662 94.2625C242.812 94.2 245.387 91.95 248.375 89.2625C252.8 85.2875 253.837 84.2875 253.975 83.9125C254.1 83.5625 254.125 82.8375 254.1 81.25L254.05 79.0625L250.375 62.9375L246.7 46.8125L246.637 44.2125L246.562 41.6L246.212 41.3L245.862 41H231.712C221.3 41.0125 217.5 41.05 217.312 41.15ZM223.125 44.1875V45.25H221H218.875V44.1875V43.125H221H223.125V44.1875ZM228.5 44.1875V45.25H226.875H225.25V44.1875V43.125H226.875H228.5V44.1875ZM232.75 44.1875V45.25H231.687H230.625V44.1875V43.125H231.687H232.75V44.1875ZM238.1 44.2125L238.137 45.25H236.5H234.875V44.1875V43.1125L236.475 43.15L238.062 43.1875L238.1 44.2125ZM244.5 44.1875V45.25H242.375H240.25V44.1875V43.125H242.375H244.5V44.1875ZM223.125 48.775C223.125 50.4375 222.875 51.1375 222.025 51.9C221.312 52.5375 220.512 52.75 218.787 52.75C217.487 52.75 217.362 52.725 217.425 52.525C217.5 52.3 218.625 47.5 218.625 47.425C218.625 47.4 219.637 47.375 220.875 47.375H223.125V48.775ZM230.625 56.8375V66.3125L222.862 84.4375C218.587 94.4 215.087 102.575 215.075 102.587C215.037 102.638 206.6 100.125 206.425 100.012C206.325 99.9625 207.962 92.8 211.575 77.4375C214.487 65.0625 216.875 54.925 216.875 54.9C216.875 54.8875 217.625 54.875 218.55 54.875C221.225 54.875 222.312 54.55 223.575 53.35C224.8 52.1875 225.25 50.95 225.25 48.6875V47.375H227.937H230.625V56.8375ZM234.875 55.6625V63.95L234.225 64.4375C233.862 64.7 233.375 65.05 233.162 65.225L232.75 65.525V56.45V47.375H233.812H234.875V55.6625ZM238.137 49.125C238.225 51.0625 238.325 51.4625 239 52.4625C239.562 53.3125 240.237 53.9 241.162 54.325C242.1 54.75 242.925 54.875 244.762 54.875C246.325 54.875 246.375 54.8875 246.437 55.15C247.875 61.25 251.875 79.425 251.875 79.875V80.5H245.325H238.775L236.075 74.2C234.587 70.7375 233.375 67.85 233.375 67.7875C233.387 67.7375 234.112 67.15 234.987 66.5C235.875 65.85 236.687 65.1625 236.8 64.975C236.975 64.6875 237 63.6875 237 56V47.3625L237.537 47.4L238.062 47.4375L238.137 49.125ZM245.275 50C245.6 51.4125 245.862 52.6125 245.862 52.675C245.875 52.725 245.125 52.7625 244.225 52.725C242.675 52.6875 242.512 52.65 241.9 52.325C240.625 51.625 240.25 50.825 240.25 48.8125V47.375L242.462 47.4L244.687 47.4375L245.275 50ZM251.875 82.9375C251.875 83.1875 250.912 84.1125 246.95 87.6875L242.025 92.125L237.662 91.25C235.275 90.775 233.187 90.35 233.037 90.3125L232.75 90.25V86.4375V82.625H242.312H251.875V82.9375Z" fill="#8F8F8F"/>
<path d="M213.163 146.383H210.985C210.945 146.101 210.864 145.851 210.741 145.632C210.619 145.41 210.461 145.221 210.269 145.065C210.077 144.91 209.855 144.79 209.603 144.707C209.354 144.625 209.084 144.583 208.793 144.583C208.266 144.583 207.806 144.714 207.415 144.976C207.024 145.234 206.721 145.612 206.506 146.109C206.29 146.603 206.182 147.203 206.182 147.909C206.182 148.635 206.29 149.245 206.506 149.739C206.724 150.232 207.029 150.605 207.42 150.857C207.811 151.109 208.264 151.235 208.778 151.235C209.066 151.235 209.333 151.197 209.578 151.121C209.827 151.045 210.047 150.933 210.239 150.788C210.431 150.638 210.591 150.458 210.717 150.246C210.846 150.034 210.935 149.792 210.985 149.52L213.163 149.53C213.106 149.997 212.965 150.448 212.74 150.882C212.518 151.313 212.218 151.699 211.84 152.04C211.466 152.379 211.018 152.647 210.498 152.846C209.981 153.041 209.396 153.139 208.743 153.139C207.835 153.139 207.023 152.934 206.307 152.523C205.594 152.112 205.031 151.517 204.616 150.738C204.205 149.959 204 149.016 204 147.909C204 146.799 204.209 145.854 204.626 145.075C205.044 144.296 205.611 143.703 206.327 143.295C207.043 142.884 207.848 142.679 208.743 142.679C209.333 142.679 209.88 142.762 210.383 142.928C210.891 143.093 211.34 143.335 211.731 143.653C212.122 143.968 212.44 144.354 212.685 144.812C212.934 145.269 213.093 145.793 213.163 146.383ZM217.594 153.144C217.107 153.144 216.673 153.06 216.291 152.891C215.91 152.718 215.609 152.465 215.387 152.13C215.168 151.792 215.059 151.371 215.059 150.867C215.059 150.443 215.136 150.087 215.292 149.798C215.448 149.51 215.66 149.278 215.929 149.102C216.197 148.927 216.502 148.794 216.843 148.705C217.188 148.615 217.549 148.552 217.927 148.516C218.371 148.469 218.729 148.426 219.001 148.386C219.273 148.343 219.47 148.28 219.593 148.197C219.715 148.115 219.777 147.992 219.777 147.83V147.8C219.777 147.485 219.677 147.241 219.478 147.069C219.283 146.897 219.004 146.81 218.643 146.81C218.262 146.81 217.959 146.895 217.733 147.064C217.508 147.23 217.359 147.438 217.286 147.69L215.327 147.531C215.426 147.067 215.622 146.666 215.914 146.328C216.205 145.987 216.581 145.725 217.042 145.543C217.506 145.357 218.043 145.264 218.653 145.264C219.077 145.264 219.483 145.314 219.871 145.413C220.262 145.513 220.608 145.667 220.91 145.876C221.215 146.085 221.455 146.353 221.631 146.681C221.807 147.006 221.894 147.395 221.894 147.849V153H219.886V151.941H219.826C219.704 152.18 219.54 152.39 219.334 152.572C219.129 152.751 218.882 152.892 218.593 152.995C218.305 153.094 217.972 153.144 217.594 153.144ZM218.201 151.683C218.512 151.683 218.787 151.621 219.026 151.499C219.264 151.373 219.452 151.204 219.588 150.991C219.724 150.779 219.791 150.539 219.791 150.271V149.46C219.725 149.503 219.634 149.543 219.518 149.58C219.405 149.613 219.278 149.644 219.135 149.674C218.993 149.701 218.85 149.725 218.708 149.749C218.565 149.768 218.436 149.787 218.32 149.803C218.071 149.84 217.854 149.898 217.669 149.977C217.483 150.057 217.339 150.165 217.236 150.3C217.133 150.433 217.082 150.599 217.082 150.798C217.082 151.086 217.186 151.306 217.395 151.459C217.607 151.608 217.876 151.683 218.201 151.683ZM226.405 142.818V153H224.288V142.818H226.405ZM232.302 153.149C231.52 153.149 230.847 152.983 230.284 152.652C229.724 152.317 229.293 151.853 228.991 151.26C228.693 150.667 228.544 149.984 228.544 149.212C228.544 148.429 228.695 147.743 228.996 147.153C229.301 146.56 229.734 146.098 230.294 145.766C230.854 145.432 231.52 145.264 232.292 145.264C232.959 145.264 233.542 145.385 234.042 145.627C234.543 145.869 234.939 146.209 235.231 146.646C235.522 147.084 235.683 147.598 235.713 148.188H233.714C233.658 147.806 233.509 147.5 233.267 147.268C233.028 147.032 232.715 146.915 232.327 146.915C231.999 146.915 231.712 147.004 231.467 147.183C231.225 147.359 231.036 147.616 230.9 147.954C230.764 148.292 230.696 148.701 230.696 149.182C230.696 149.669 230.763 150.083 230.895 150.425C231.031 150.766 231.222 151.026 231.467 151.205C231.712 151.384 231.999 151.474 232.327 151.474C232.569 151.474 232.786 151.424 232.978 151.325C233.174 151.225 233.335 151.081 233.461 150.892C233.59 150.7 233.674 150.469 233.714 150.201H235.713C235.68 150.784 235.521 151.298 235.236 151.742C234.954 152.183 234.564 152.528 234.067 152.776C233.57 153.025 232.982 153.149 232.302 153.149ZM231.805 152.96H232.78L232.7 153.393C233.041 153.446 233.32 153.573 233.535 153.776C233.754 153.978 233.865 154.253 233.868 154.601C233.872 155.095 233.643 155.487 233.182 155.779C232.722 156.074 232.075 156.222 231.243 156.222L231.223 155.277C231.641 155.277 231.968 155.226 232.203 155.123C232.441 155.023 232.566 154.868 232.576 154.656C232.582 154.453 232.504 154.299 232.342 154.193C232.18 154.087 231.926 154.013 231.581 153.969L231.805 152.96ZM239.996 153.144C239.509 153.144 239.075 153.06 238.694 152.891C238.313 152.718 238.011 152.465 237.789 152.13C237.57 151.792 237.461 151.371 237.461 150.867C237.461 150.443 237.539 150.087 237.695 149.798C237.85 149.51 238.062 149.278 238.331 149.102C238.599 148.927 238.904 148.794 239.246 148.705C239.59 148.615 239.952 148.552 240.329 148.516C240.774 148.469 241.132 148.426 241.403 148.386C241.675 148.343 241.872 148.28 241.995 148.197C242.118 148.115 242.179 147.992 242.179 147.83V147.8C242.179 147.485 242.079 147.241 241.881 147.069C241.685 146.897 241.407 146.81 241.045 146.81C240.664 146.81 240.361 146.895 240.136 147.064C239.91 147.23 239.761 147.438 239.688 147.69L237.729 147.531C237.829 147.067 238.024 146.666 238.316 146.328C238.608 145.987 238.984 145.725 239.445 145.543C239.909 145.357 240.445 145.264 241.055 145.264C241.48 145.264 241.886 145.314 242.273 145.413C242.664 145.513 243.011 145.667 243.312 145.876C243.617 146.085 243.858 146.353 244.033 146.681C244.209 147.006 244.297 147.395 244.297 147.849V153H242.288V151.941H242.229C242.106 152.18 241.942 152.39 241.736 152.572C241.531 152.751 241.284 152.892 240.996 152.995C240.707 153.094 240.374 153.144 239.996 153.144ZM240.603 151.683C240.914 151.683 241.19 151.621 241.428 151.499C241.667 151.373 241.854 151.204 241.99 150.991C242.126 150.779 242.194 150.539 242.194 150.271V149.46C242.128 149.503 242.036 149.543 241.92 149.58C241.808 149.613 241.68 149.644 241.538 149.674C241.395 149.701 241.253 149.725 241.11 149.749C240.967 149.768 240.838 149.787 240.722 149.803C240.474 149.84 240.257 149.898 240.071 149.977C239.885 150.057 239.741 150.165 239.638 150.3C239.536 150.433 239.484 150.599 239.484 150.798C239.484 151.086 239.589 151.306 239.797 151.459C240.01 151.608 240.278 151.683 240.603 151.683ZM253.044 147.541L251.105 147.661C251.072 147.495 251 147.346 250.891 147.213C250.782 147.077 250.637 146.969 250.458 146.89C250.283 146.807 250.072 146.766 249.827 146.766C249.499 146.766 249.222 146.835 248.997 146.974C248.771 147.11 248.659 147.293 248.659 147.521C248.659 147.704 248.732 147.858 248.877 147.984C249.023 148.11 249.273 148.211 249.628 148.287L251.01 148.565C251.753 148.718 252.306 148.963 252.671 149.301C253.035 149.639 253.218 150.083 253.218 150.634C253.218 151.134 253.07 151.573 252.775 151.951C252.483 152.329 252.082 152.624 251.572 152.836C251.065 153.045 250.48 153.149 249.817 153.149C248.806 153.149 248.001 152.939 247.401 152.518C246.804 152.094 246.455 151.517 246.352 150.788L248.435 150.678C248.498 150.987 248.65 151.222 248.892 151.384C249.134 151.543 249.444 151.623 249.822 151.623C250.193 151.623 250.492 151.552 250.717 151.409C250.946 151.263 251.062 151.076 251.065 150.847C251.062 150.655 250.98 150.498 250.821 150.375C250.662 150.249 250.417 150.153 250.085 150.087L248.763 149.823C248.017 149.674 247.462 149.415 247.098 149.048C246.736 148.68 246.556 148.211 246.556 147.641C246.556 147.15 246.688 146.728 246.953 146.373C247.222 146.018 247.598 145.745 248.082 145.553C248.569 145.36 249.139 145.264 249.792 145.264C250.757 145.264 251.516 145.468 252.069 145.876C252.626 146.283 252.951 146.839 253.044 147.541Z" fill="#474747"/>
<rect x="329" y="21" width="104" height="104" rx="52" fill="white"/>
<path d="M369.312 41.15C368.787 41.45 368.762 41.6125 368.75 43.9125V46.125L362.362 73.25C358.412 90.075 356 100.55 356.025 100.838C356.05 101.15 356.162 101.362 356.375 101.525C356.7 101.763 367.287 105 367.737 105C367.875 105 368.125 104.875 368.3 104.713C368.525 104.525 370.775 99.3875 376.075 87C380.187 77.4125 383.575 69.525 383.612 69.475C383.687 69.3875 388.375 80.175 388.375 80.4125C388.375 80.4625 387.225 80.5 385.812 80.5C383.25 80.5 383.237 80.5 382.937 80.8125L382.625 81.1125V86.3V91.4875L382.912 91.8125C383.162 92.1 383.625 92.2125 388.787 93.25C392.687 94.025 394.462 94.3375 394.662 94.2625C394.812 94.2 397.387 91.95 400.375 89.2625C404.8 85.2875 405.837 84.2875 405.975 83.9125C406.1 83.5625 406.125 82.8375 406.1 81.25L406.05 79.0625L402.375 62.9375L398.7 46.8125L398.637 44.2125L398.562 41.6L398.212 41.3L397.862 41H383.712C373.3 41.0125 369.5 41.05 369.312 41.15ZM375.125 44.1875V45.25H373H370.875V44.1875V43.125H373H375.125V44.1875ZM380.5 44.1875V45.25H378.875H377.25V44.1875V43.125H378.875H380.5V44.1875ZM384.75 44.1875V45.25H383.687H382.625V44.1875V43.125H383.687H384.75V44.1875ZM390.1 44.2125L390.137 45.25H388.5H386.875V44.1875V43.1125L388.475 43.15L390.062 43.1875L390.1 44.2125ZM396.5 44.1875V45.25H394.375H392.25V44.1875V43.125H394.375H396.5V44.1875ZM375.125 48.775C375.125 50.4375 374.875 51.1375 374.025 51.9C373.312 52.5375 372.512 52.75 370.787 52.75C369.487 52.75 369.362 52.725 369.425 52.525C369.5 52.3 370.625 47.5 370.625 47.425C370.625 47.4 371.637 47.375 372.875 47.375H375.125V48.775ZM382.625 56.8375V66.3125L374.862 84.4375C370.587 94.4 367.087 102.575 367.075 102.587C367.037 102.638 358.6 100.125 358.425 100.012C358.325 99.9625 359.962 92.8 363.575 77.4375C366.487 65.0625 368.875 54.925 368.875 54.9C368.875 54.8875 369.625 54.875 370.55 54.875C373.225 54.875 374.312 54.55 375.575 53.35C376.8 52.1875 377.25 50.95 377.25 48.6875V47.375H379.937H382.625V56.8375ZM386.875 55.6625V63.95L386.225 64.4375C385.862 64.7 385.375 65.05 385.162 65.225L384.75 65.525V56.45V47.375H385.812H386.875V55.6625ZM390.137 49.125C390.225 51.0625 390.325 51.4625 391 52.4625C391.562 53.3125 392.237 53.9 393.162 54.325C394.1 54.75 394.925 54.875 396.762 54.875C398.325 54.875 398.375 54.8875 398.437 55.15C399.875 61.25 403.875 79.425 403.875 79.875V80.5H397.325H390.775L388.075 74.2C386.587 70.7375 385.375 67.85 385.375 67.7875C385.387 67.7375 386.112 67.15 386.987 66.5C387.875 65.85 388.687 65.1625 388.8 64.975C388.975 64.6875 389 63.6875 389 56V47.3625L389.537 47.4L390.062 47.4375L390.137 49.125ZM397.275 50C397.6 51.4125 397.862 52.6125 397.862 52.675C397.875 52.725 397.125 52.7625 396.225 52.725C394.675 52.6875 394.512 52.65 393.9 52.325C392.625 51.625 392.25 50.825 392.25 48.8125V47.375L394.462 47.4L396.687 47.4375L397.275 50ZM403.875 82.9375C403.875 83.1875 402.912 84.1125 398.95 87.6875L394.025 92.125L389.662 91.25C387.275 90.775 385.187 90.35 385.037 90.3125L384.75 90.25V86.4375V82.625H394.312H403.875V82.9375Z" fill="#8F8F8F"/>
<path d="M358.995 153V142.818H363.072C363.821 142.818 364.446 142.929 364.946 143.151C365.447 143.373 365.823 143.682 366.075 144.076C366.327 144.467 366.453 144.918 366.453 145.428C366.453 145.826 366.373 146.176 366.214 146.477C366.055 146.776 365.836 147.021 365.558 147.213C365.283 147.402 364.968 147.536 364.613 147.616V147.715C365.001 147.732 365.364 147.841 365.702 148.043C366.043 148.246 366.32 148.529 366.532 148.893C366.744 149.255 366.85 149.686 366.85 150.186C366.85 150.726 366.716 151.209 366.448 151.633C366.183 152.054 365.79 152.387 365.269 152.632C364.749 152.877 364.108 153 363.345 153H358.995ZM361.148 151.24H362.903C363.503 151.24 363.94 151.126 364.215 150.897C364.491 150.665 364.628 150.357 364.628 149.972C364.628 149.691 364.56 149.442 364.424 149.227C364.288 149.011 364.094 148.842 363.843 148.719C363.594 148.597 363.297 148.536 362.953 148.536H361.148V151.24ZM361.148 147.079H362.744C363.039 147.079 363.301 147.027 363.529 146.925C363.761 146.819 363.944 146.67 364.076 146.477C364.212 146.285 364.28 146.055 364.28 145.786C364.28 145.418 364.149 145.122 363.887 144.896C363.629 144.671 363.261 144.558 362.784 144.558H361.148V147.079ZM372.412 153.149C371.639 153.149 370.972 152.985 370.408 152.657C369.848 152.326 369.415 151.865 369.111 151.275C368.806 150.682 368.653 149.994 368.653 149.212C368.653 148.423 368.806 147.733 369.111 147.143C369.415 146.55 369.848 146.089 370.408 145.761C370.972 145.43 371.639 145.264 372.412 145.264C373.184 145.264 373.85 145.43 374.41 145.761C374.974 146.089 375.408 146.55 375.713 147.143C376.018 147.733 376.17 148.423 376.17 149.212C376.17 149.994 376.018 150.682 375.713 151.275C375.408 151.865 374.974 152.326 374.41 152.657C373.85 152.985 373.184 153.149 372.412 153.149ZM372.422 151.509C372.773 151.509 373.066 151.409 373.302 151.21C373.537 151.008 373.714 150.733 373.834 150.385C373.956 150.037 374.017 149.641 374.017 149.197C374.017 148.753 373.956 148.357 373.834 148.009C373.714 147.661 373.537 147.385 373.302 147.183C373.066 146.981 372.773 146.88 372.422 146.88C372.067 146.88 371.769 146.981 371.527 147.183C371.288 147.385 371.107 147.661 370.985 148.009C370.866 148.357 370.806 148.753 370.806 149.197C370.806 149.641 370.866 150.037 370.985 150.385C371.107 150.733 371.288 151.008 371.527 151.21C371.769 151.409 372.067 151.509 372.422 151.509ZM380.415 148.585V153H378.297V145.364H380.316V146.711H380.405C380.574 146.267 380.858 145.915 381.255 145.657C381.653 145.395 382.135 145.264 382.702 145.264C383.232 145.264 383.695 145.38 384.089 145.612C384.484 145.844 384.79 146.176 385.009 146.607C385.228 147.034 385.337 147.545 385.337 148.138V153H383.219V148.516C383.223 148.048 383.103 147.684 382.861 147.422C382.619 147.157 382.286 147.024 381.862 147.024C381.577 147.024 381.325 147.085 381.106 147.208C380.891 147.331 380.722 147.51 380.599 147.745C380.48 147.977 380.419 148.257 380.415 148.585ZM391.236 153.149C390.451 153.149 389.775 152.99 389.208 152.672C388.645 152.35 388.21 151.896 387.905 151.31C387.601 150.72 387.448 150.022 387.448 149.217C387.448 148.431 387.601 147.742 387.905 147.148C388.21 146.555 388.64 146.093 389.193 145.761C389.75 145.43 390.403 145.264 391.152 145.264C391.656 145.264 392.125 145.345 392.559 145.508C392.996 145.667 393.378 145.907 393.702 146.229C394.03 146.55 394.286 146.955 394.468 147.442C394.65 147.926 394.741 148.492 394.741 149.142V149.724H388.293V148.411H392.748C392.748 148.106 392.681 147.836 392.549 147.601C392.416 147.366 392.232 147.182 391.997 147.049C391.765 146.913 391.495 146.845 391.187 146.845C390.865 146.845 390.58 146.92 390.332 147.069C390.086 147.215 389.894 147.412 389.755 147.661C389.616 147.906 389.544 148.179 389.541 148.481V149.729C389.541 150.107 389.611 150.433 389.75 150.708C389.892 150.983 390.093 151.195 390.351 151.344C390.61 151.494 390.917 151.568 391.271 151.568C391.507 151.568 391.722 151.535 391.918 151.469C392.113 151.402 392.28 151.303 392.42 151.17C392.559 151.038 392.665 150.875 392.738 150.683L394.697 150.812C394.597 151.283 394.393 151.694 394.085 152.045C393.78 152.393 393.386 152.665 392.902 152.861C392.421 153.053 391.866 153.149 391.236 153.149ZM390.342 144.379L391.396 142.117H393.354L391.838 144.379H390.342ZM403.227 147.541L401.288 147.661C401.255 147.495 401.184 147.346 401.074 147.213C400.965 147.077 400.821 146.969 400.642 146.89C400.466 146.807 400.256 146.766 400.011 146.766C399.682 146.766 399.406 146.835 399.18 146.974C398.955 147.11 398.842 147.293 398.842 147.521C398.842 147.704 398.915 147.858 399.061 147.984C399.207 148.11 399.457 148.211 399.812 148.287L401.194 148.565C401.936 148.718 402.49 148.963 402.854 149.301C403.219 149.639 403.401 150.083 403.401 150.634C403.401 151.134 403.254 151.573 402.959 151.951C402.667 152.329 402.266 152.624 401.756 152.836C401.248 153.045 400.664 153.149 400.001 153.149C398.99 153.149 398.184 152.939 397.584 152.518C396.988 152.094 396.638 151.517 396.535 150.788L398.619 150.678C398.681 150.987 398.834 151.222 399.076 151.384C399.318 151.543 399.628 151.623 400.006 151.623C400.377 151.623 400.675 151.552 400.9 151.409C401.129 151.263 401.245 151.076 401.248 150.847C401.245 150.655 401.164 150.498 401.005 150.375C400.846 150.249 400.601 150.153 400.269 150.087L398.947 149.823C398.201 149.674 397.646 149.415 397.281 149.048C396.92 148.68 396.739 148.211 396.739 147.641C396.739 147.15 396.872 146.728 397.137 146.373C397.405 146.018 397.782 145.745 398.266 145.553C398.753 145.36 399.323 145.264 399.976 145.264C400.94 145.264 401.699 145.468 402.253 145.876C402.81 146.283 403.134 146.839 403.227 147.541Z" fill="#474747"/>
<rect x="481" y="21" width="104" height="104" rx="52" fill="white"/>
<mask id="path-11-outside-1_309_852" maskUnits="userSpaceOnUse" x="500.814" y="42.75" width="61" height="61" fill="black">
<rect fill="white" x="500.814" y="42.75" width="61" height="61"/>
<path d="M528.136 43.5097C521.476 44.3702 515.735 47.1959 511.144 51.8937C509.691 53.3705 508.912 54.3356 507.773 56.0682C506.146 58.5102 504.856 61.4405 504.135 64.3243C503.484 66.9174 503.333 68.2779 503.345 71.4176C503.345 73.8595 503.612 78.5341 503.798 79.5573C503.856 79.8713 503.821 79.9294 503.472 80.1039C502.856 80.3946 502.403 80.8248 502.124 81.4062C501.578 82.4877 501.578 82.4412 503.589 91.3833C505.658 100.605 505.588 100.407 506.739 101.093C507.622 101.628 508.168 101.674 509.644 101.372C510.574 101.174 510.876 101.139 510.923 101.256C511.027 101.57 511.795 102.291 512.259 102.512C512.992 102.872 514.026 102.826 516.118 102.36C518.129 101.907 518.396 101.791 519.001 101.128C519.582 100.488 519.78 99.9766 519.78 99.1742C519.78 98.3137 515.235 77.9759 514.898 77.3131C514.561 76.6619 513.794 76.034 513.027 75.813C512.457 75.6502 512.294 75.6502 511.492 75.8014L510.609 75.9642L510.504 74.8595C510.33 72.8013 510.4 68.5105 510.621 67.3244C511.76 61.2428 515.305 56.1729 520.616 52.9868C524.231 50.8239 528.811 49.7541 533.041 50.0797C540.759 50.6611 547.419 55.1147 550.685 61.8824C552.394 65.4174 552.905 68.3477 552.661 73.1618C552.591 74.627 552.51 75.8596 552.487 75.9061C552.452 75.941 552.033 75.8944 551.534 75.8014C550.72 75.6502 550.569 75.6502 549.988 75.813C549.221 76.034 548.454 76.6619 548.116 77.3131C547.779 77.9759 543.235 98.3137 543.235 99.1742C543.235 99.9417 543.432 100.465 543.932 101.046C544.537 101.721 544.978 101.918 546.884 102.349C549.023 102.826 550.023 102.872 550.755 102.512C551.22 102.291 551.987 101.57 552.092 101.256C552.138 101.139 552.44 101.174 553.37 101.372C554.846 101.674 555.392 101.628 556.276 101.093C557.415 100.407 557.368 100.581 559.379 91.674C561.378 82.8016 561.436 82.4412 560.902 81.4179C560.634 80.9062 560.111 80.3946 559.461 80.0225C559.286 79.9178 559.275 79.7899 559.391 78.6271C559.844 73.906 559.856 68.8826 559.402 66.3593C557.554 55.9054 549.837 47.4168 539.469 44.4167C536.947 43.6958 535.064 43.4283 532.03 43.3818C530.24 43.3585 528.962 43.3934 528.136 43.5097ZM534.959 45.0214C545.199 46.3586 553.672 53.1844 556.927 62.6964C558.31 66.7895 558.566 70.3012 557.996 77.5224C557.833 79.6039 557.833 79.6039 557.345 79.4759C557.02 79.3945 556.962 79.3248 556.962 79.0341C556.962 78.0922 555.927 76.8596 554.858 76.5456C554.521 76.441 554.172 76.3596 554.091 76.3596C553.963 76.3596 553.94 76.2084 553.986 75.6851C554.149 73.906 554.184 73.2199 554.172 71.0687C554.172 69.5803 554.114 68.3244 553.998 67.5919C553.451 64.022 552.033 60.58 549.906 57.6962C548.872 56.3008 546.35 53.8124 544.99 52.8472C541.875 50.6378 538.446 49.2657 534.727 48.7424C533.146 48.5215 529.996 48.5215 528.357 48.7541C518.896 50.0681 511.167 57.2194 509.319 66.3244C508.819 68.7663 508.761 70.4989 509.04 75.1037C509.098 76.1619 509.086 76.3596 508.935 76.3596C508.842 76.3596 508.505 76.441 508.18 76.534C507.122 76.848 506.053 78.0922 506.053 79.0224C506.053 79.3597 505.89 79.4992 505.483 79.4992C505.309 79.4992 505.262 79.3597 505.204 78.7782C504.972 76.4526 504.856 73.9874 504.844 71.4176C504.832 68.2082 504.96 67.1267 505.611 64.5569C507.773 56.1148 514.375 49.068 522.802 46.2424C524.65 45.6261 527.021 45.1028 528.834 44.9284C530.054 44.8004 533.716 44.8586 534.959 45.0214ZM512.992 77.4061C513.201 77.5224 513.445 77.7433 513.538 77.8945C513.631 78.0457 514.758 82.9063 516.06 88.6972L518.408 99.2324L518.187 99.6742C518.071 99.9184 517.838 100.221 517.676 100.337C517.269 100.628 513.782 101.395 513.282 101.302C513.073 101.267 512.736 101.093 512.538 100.907C512.132 100.546 512.376 101.558 509.133 86.9878L507.413 79.2899L507.633 78.848C507.761 78.6038 507.982 78.3131 508.145 78.1968C508.435 77.9875 511.632 77.1968 512.271 77.1852C512.469 77.1735 512.782 77.2782 512.992 77.4061ZM552.754 77.5805C553.754 77.8015 554.707 78.0806 554.869 78.1968C555.032 78.3131 555.253 78.6038 555.381 78.848L555.602 79.2899L553.893 86.9297C550.546 101.942 550.883 100.546 550.476 100.907C550.278 101.081 549.941 101.267 549.732 101.302C549.232 101.395 545.745 100.628 545.339 100.337C545.176 100.221 544.943 99.9184 544.827 99.6742L544.606 99.2324L546.954 88.6972C548.256 82.9063 549.383 78.0457 549.476 77.8945C549.697 77.5573 550.313 77.1735 550.662 77.1735C550.813 77.1735 551.754 77.3596 552.754 77.5805ZM506.32 81.2086C506.355 81.3946 507.285 85.5343 508.377 90.4298C509.47 95.3253 510.377 99.4068 510.388 99.4998C510.411 99.6742 509.121 100.058 508.401 100.07C507.889 100.081 507.285 99.7905 507.041 99.4184C506.832 99.1045 503.263 83.3482 503.263 82.7435C503.263 82.29 503.624 81.6853 504.007 81.4876C504.251 81.3481 505.762 80.9411 506.122 80.9062C506.192 80.8946 506.285 81.0341 506.32 81.2086ZM557.868 81.1272C558.403 81.2551 558.949 81.4411 559.077 81.5341C559.461 81.79 559.751 82.3132 559.751 82.7319C559.751 83.3249 556.183 99.1045 555.974 99.4184C555.73 99.7905 555.125 100.081 554.614 100.07C553.893 100.058 552.603 99.6742 552.626 99.4998C552.638 99.4068 553.544 95.3253 554.637 90.4298C555.73 85.5343 556.659 81.3946 556.694 81.2086C556.729 81.0341 556.787 80.8946 556.834 80.8946C556.869 80.8946 557.345 80.9992 557.868 81.1272Z"/>
</mask>
<path d="M528.136 43.5097C521.476 44.3702 515.735 47.1959 511.144 51.8937C509.691 53.3705 508.912 54.3356 507.773 56.0682C506.146 58.5102 504.856 61.4405 504.135 64.3243C503.484 66.9174 503.333 68.2779 503.345 71.4176C503.345 73.8595 503.612 78.5341 503.798 79.5573C503.856 79.8713 503.821 79.9294 503.472 80.1039C502.856 80.3946 502.403 80.8248 502.124 81.4062C501.578 82.4877 501.578 82.4412 503.589 91.3833C505.658 100.605 505.588 100.407 506.739 101.093C507.622 101.628 508.168 101.674 509.644 101.372C510.574 101.174 510.876 101.139 510.923 101.256C511.027 101.57 511.795 102.291 512.259 102.512C512.992 102.872 514.026 102.826 516.118 102.36C518.129 101.907 518.396 101.791 519.001 101.128C519.582 100.488 519.78 99.9766 519.78 99.1742C519.78 98.3137 515.235 77.9759 514.898 77.3131C514.561 76.6619 513.794 76.034 513.027 75.813C512.457 75.6502 512.294 75.6502 511.492 75.8014L510.609 75.9642L510.504 74.8595C510.33 72.8013 510.4 68.5105 510.621 67.3244C511.76 61.2428 515.305 56.1729 520.616 52.9868C524.231 50.8239 528.811 49.7541 533.041 50.0797C540.759 50.6611 547.419 55.1147 550.685 61.8824C552.394 65.4174 552.905 68.3477 552.661 73.1618C552.591 74.627 552.51 75.8596 552.487 75.9061C552.452 75.941 552.033 75.8944 551.534 75.8014C550.72 75.6502 550.569 75.6502 549.988 75.813C549.221 76.034 548.454 76.6619 548.116 77.3131C547.779 77.9759 543.235 98.3137 543.235 99.1742C543.235 99.9417 543.432 100.465 543.932 101.046C544.537 101.721 544.978 101.918 546.884 102.349C549.023 102.826 550.023 102.872 550.755 102.512C551.22 102.291 551.987 101.57 552.092 101.256C552.138 101.139 552.44 101.174 553.37 101.372C554.846 101.674 555.392 101.628 556.276 101.093C557.415 100.407 557.368 100.581 559.379 91.674C561.378 82.8016 561.436 82.4412 560.902 81.4179C560.634 80.9062 560.111 80.3946 559.461 80.0225C559.286 79.9178 559.275 79.7899 559.391 78.6271C559.844 73.906 559.856 68.8826 559.402 66.3593C557.554 55.9054 549.837 47.4168 539.469 44.4167C536.947 43.6958 535.064 43.4283 532.03 43.3818C530.24 43.3585 528.962 43.3934 528.136 43.5097ZM534.959 45.0214C545.199 46.3586 553.672 53.1844 556.927 62.6964C558.31 66.7895 558.566 70.3012 557.996 77.5224C557.833 79.6039 557.833 79.6039 557.345 79.4759C557.02 79.3945 556.962 79.3248 556.962 79.0341C556.962 78.0922 555.927 76.8596 554.858 76.5456C554.521 76.441 554.172 76.3596 554.091 76.3596C553.963 76.3596 553.94 76.2084 553.986 75.6851C554.149 73.906 554.184 73.2199 554.172 71.0687C554.172 69.5803 554.114 68.3244 553.998 67.5919C553.451 64.022 552.033 60.58 549.906 57.6962C548.872 56.3008 546.35 53.8124 544.99 52.8472C541.875 50.6378 538.446 49.2657 534.727 48.7424C533.146 48.5215 529.996 48.5215 528.357 48.7541C518.896 50.0681 511.167 57.2194 509.319 66.3244C508.819 68.7663 508.761 70.4989 509.04 75.1037C509.098 76.1619 509.086 76.3596 508.935 76.3596C508.842 76.3596 508.505 76.441 508.18 76.534C507.122 76.848 506.053 78.0922 506.053 79.0224C506.053 79.3597 505.89 79.4992 505.483 79.4992C505.309 79.4992 505.262 79.3597 505.204 78.7782C504.972 76.4526 504.856 73.9874 504.844 71.4176C504.832 68.2082 504.96 67.1267 505.611 64.5569C507.773 56.1148 514.375 49.068 522.802 46.2424C524.65 45.6261 527.021 45.1028 528.834 44.9284C530.054 44.8004 533.716 44.8586 534.959 45.0214ZM512.992 77.4061C513.201 77.5224 513.445 77.7433 513.538 77.8945C513.631 78.0457 514.758 82.9063 516.06 88.6972L518.408 99.2324L518.187 99.6742C518.071 99.9184 517.838 100.221 517.676 100.337C517.269 100.628 513.782 101.395 513.282 101.302C513.073 101.267 512.736 101.093 512.538 100.907C512.132 100.546 512.376 101.558 509.133 86.9878L507.413 79.2899L507.633 78.848C507.761 78.6038 507.982 78.3131 508.145 78.1968C508.435 77.9875 511.632 77.1968 512.271 77.1852C512.469 77.1735 512.782 77.2782 512.992 77.4061ZM552.754 77.5805C553.754 77.8015 554.707 78.0806 554.869 78.1968C555.032 78.3131 555.253 78.6038 555.381 78.848L555.602 79.2899L553.893 86.9297C550.546 101.942 550.883 100.546 550.476 100.907C550.278 101.081 549.941 101.267 549.732 101.302C549.232 101.395 545.745 100.628 545.339 100.337C545.176 100.221 544.943 99.9184 544.827 99.6742L544.606 99.2324L546.954 88.6972C548.256 82.9063 549.383 78.0457 549.476 77.8945C549.697 77.5573 550.313 77.1735 550.662 77.1735C550.813 77.1735 551.754 77.3596 552.754 77.5805ZM506.32 81.2086C506.355 81.3946 507.285 85.5343 508.377 90.4298C509.47 95.3253 510.377 99.4068 510.388 99.4998C510.411 99.6742 509.121 100.058 508.401 100.07C507.889 100.081 507.285 99.7905 507.041 99.4184C506.832 99.1045 503.263 83.3482 503.263 82.7435C503.263 82.29 503.624 81.6853 504.007 81.4876C504.251 81.3481 505.762 80.9411 506.122 80.9062C506.192 80.8946 506.285 81.0341 506.32 81.2086ZM557.868 81.1272C558.403 81.2551 558.949 81.4411 559.077 81.5341C559.461 81.79 559.751 82.3132 559.751 82.7319C559.751 83.3249 556.183 99.1045 555.974 99.4184C555.73 99.7905 555.125 100.081 554.614 100.07C553.893 100.058 552.603 99.6742 552.626 99.4998C552.638 99.4068 553.544 95.3253 554.637 90.4298C555.73 85.5343 556.659 81.3946 556.694 81.2086C556.729 81.0341 556.787 80.8946 556.834 80.8946C556.869 80.8946 557.345 80.9992 557.868 81.1272Z" fill="#8F8F8F"/>
<path d="M528.136 43.5097C521.476 44.3702 515.735 47.1959 511.144 51.8937C509.691 53.3705 508.912 54.3356 507.773 56.0682C506.146 58.5102 504.856 61.4405 504.135 64.3243C503.484 66.9174 503.333 68.2779 503.345 71.4176C503.345 73.8595 503.612 78.5341 503.798 79.5573C503.856 79.8713 503.821 79.9294 503.472 80.1039C502.856 80.3946 502.403 80.8248 502.124 81.4062C501.578 82.4877 501.578 82.4412 503.589 91.3833C505.658 100.605 505.588 100.407 506.739 101.093C507.622 101.628 508.168 101.674 509.644 101.372C510.574 101.174 510.876 101.139 510.923 101.256C511.027 101.57 511.795 102.291 512.259 102.512C512.992 102.872 514.026 102.826 516.118 102.36C518.129 101.907 518.396 101.791 519.001 101.128C519.582 100.488 519.78 99.9766 519.78 99.1742C519.78 98.3137 515.235 77.9759 514.898 77.3131C514.561 76.6619 513.794 76.034 513.027 75.813C512.457 75.6502 512.294 75.6502 511.492 75.8014L510.609 75.9642L510.504 74.8595C510.33 72.8013 510.4 68.5105 510.621 67.3244C511.76 61.2428 515.305 56.1729 520.616 52.9868C524.231 50.8239 528.811 49.7541 533.041 50.0797C540.759 50.6611 547.419 55.1147 550.685 61.8824C552.394 65.4174 552.905 68.3477 552.661 73.1618C552.591 74.627 552.51 75.8596 552.487 75.9061C552.452 75.941 552.033 75.8944 551.534 75.8014C550.72 75.6502 550.569 75.6502 549.988 75.813C549.221 76.034 548.454 76.6619 548.116 77.3131C547.779 77.9759 543.235 98.3137 543.235 99.1742C543.235 99.9417 543.432 100.465 543.932 101.046C544.537 101.721 544.978 101.918 546.884 102.349C549.023 102.826 550.023 102.872 550.755 102.512C551.22 102.291 551.987 101.57 552.092 101.256C552.138 101.139 552.44 101.174 553.37 101.372C554.846 101.674 555.392 101.628 556.276 101.093C557.415 100.407 557.368 100.581 559.379 91.674C561.378 82.8016 561.436 82.4412 560.902 81.4179C560.634 80.9062 560.111 80.3946 559.461 80.0225C559.286 79.9178 559.275 79.7899 559.391 78.6271C559.844 73.906 559.856 68.8826 559.402 66.3593C557.554 55.9054 549.837 47.4168 539.469 44.4167C536.947 43.6958 535.064 43.4283 532.03 43.3818C530.24 43.3585 528.962 43.3934 528.136 43.5097ZM534.959 45.0214C545.199 46.3586 553.672 53.1844 556.927 62.6964C558.31 66.7895 558.566 70.3012 557.996 77.5224C557.833 79.6039 557.833 79.6039 557.345 79.4759C557.02 79.3945 556.962 79.3248 556.962 79.0341C556.962 78.0922 555.927 76.8596 554.858 76.5456C554.521 76.441 554.172 76.3596 554.091 76.3596C553.963 76.3596 553.94 76.2084 553.986 75.6851C554.149 73.906 554.184 73.2199 554.172 71.0687C554.172 69.5803 554.114 68.3244 553.998 67.5919C553.451 64.022 552.033 60.58 549.906 57.6962C548.872 56.3008 546.35 53.8124 544.99 52.8472C541.875 50.6378 538.446 49.2657 534.727 48.7424C533.146 48.5215 529.996 48.5215 528.357 48.7541C518.896 50.0681 511.167 57.2194 509.319 66.3244C508.819 68.7663 508.761 70.4989 509.04 75.1037C509.098 76.1619 509.086 76.3596 508.935 76.3596C508.842 76.3596 508.505 76.441 508.18 76.534C507.122 76.848 506.053 78.0922 506.053 79.0224C506.053 79.3597 505.89 79.4992 505.483 79.4992C505.309 79.4992 505.262 79.3597 505.204 78.7782C504.972 76.4526 504.856 73.9874 504.844 71.4176C504.832 68.2082 504.96 67.1267 505.611 64.5569C507.773 56.1148 514.375 49.068 522.802 46.2424C524.65 45.6261 527.021 45.1028 528.834 44.9284C530.054 44.8004 533.716 44.8586 534.959 45.0214ZM512.992 77.4061C513.201 77.5224 513.445 77.7433 513.538 77.8945C513.631 78.0457 514.758 82.9063 516.06 88.6972L518.408 99.2324L518.187 99.6742C518.071 99.9184 517.838 100.221 517.676 100.337C517.269 100.628 513.782 101.395 513.282 101.302C513.073 101.267 512.736 101.093 512.538 100.907C512.132 100.546 512.376 101.558 509.133 86.9878L507.413 79.2899L507.633 78.848C507.761 78.6038 507.982 78.3131 508.145 78.1968C508.435 77.9875 511.632 77.1968 512.271 77.1852C512.469 77.1735 512.782 77.2782 512.992 77.4061ZM552.754 77.5805C553.754 77.8015 554.707 78.0806 554.869 78.1968C555.032 78.3131 555.253 78.6038 555.381 78.848L555.602 79.2899L553.893 86.9297C550.546 101.942 550.883 100.546 550.476 100.907C550.278 101.081 549.941 101.267 549.732 101.302C549.232 101.395 545.745 100.628 545.339 100.337C545.176 100.221 544.943 99.9184 544.827 99.6742L544.606 99.2324L546.954 88.6972C548.256 82.9063 549.383 78.0457 549.476 77.8945C549.697 77.5573 550.313 77.1735 550.662 77.1735C550.813 77.1735 551.754 77.3596 552.754 77.5805ZM506.32 81.2086C506.355 81.3946 507.285 85.5343 508.377 90.4298C509.47 95.3253 510.377 99.4068 510.388 99.4998C510.411 99.6742 509.121 100.058 508.401 100.07C507.889 100.081 507.285 99.7905 507.041 99.4184C506.832 99.1045 503.263 83.3482 503.263 82.7435C503.263 82.29 503.624 81.6853 504.007 81.4876C504.251 81.3481 505.762 80.9411 506.122 80.9062C506.192 80.8946 506.285 81.0341 506.32 81.2086ZM557.868 81.1272C558.403 81.2551 558.949 81.4411 559.077 81.5341C559.461 81.79 559.751 82.3132 559.751 82.7319C559.751 83.3249 556.183 99.1045 555.974 99.4184C555.73 99.7905 555.125 100.081 554.614 100.07C553.893 100.058 552.603 99.6742 552.626 99.4998C552.638 99.4068 553.544 95.3253 554.637 90.4298C555.73 85.5343 556.659 81.3946 556.694 81.2086C556.729 81.0341 556.787 80.8946 556.834 80.8946C556.869 80.8946 557.345 80.9992 557.868 81.1272Z" stroke="#8F8F8F" stroke-width="0.25" mask="url(#path-11-outside-1_309_852)"/>
<path d="M487.033 153V142.818H489.186V147.019H493.556V142.818H495.704V153H493.556V148.794H489.186V153H487.033ZM501.669 153.149C500.884 153.149 500.207 152.99 499.641 152.672C499.077 152.35 498.643 151.896 498.338 151.31C498.033 150.72 497.881 150.022 497.881 149.217C497.881 148.431 498.033 147.742 498.338 147.148C498.643 146.555 499.072 146.093 499.626 145.761C500.183 145.43 500.835 145.264 501.585 145.264C502.088 145.264 502.557 145.345 502.991 145.508C503.429 145.667 503.81 145.907 504.135 146.229C504.463 146.55 504.718 146.955 504.901 147.442C505.083 147.926 505.174 148.492 505.174 149.142V149.724H498.726V148.411H503.18C503.18 148.106 503.114 147.836 502.982 147.601C502.849 147.366 502.665 147.182 502.43 147.049C502.198 146.913 501.928 146.845 501.619 146.845C501.298 146.845 501.013 146.92 500.764 147.069C500.519 147.215 500.327 147.412 500.188 147.661C500.048 147.906 499.977 148.179 499.974 148.481V149.729C499.974 150.107 500.043 150.433 500.183 150.708C500.325 150.983 500.526 151.195 500.784 151.344C501.043 151.494 501.349 151.568 501.704 151.568C501.939 151.568 502.155 151.535 502.35 151.469C502.546 151.402 502.713 151.303 502.852 151.17C502.991 151.038 503.098 150.875 503.17 150.683L505.129 150.812C505.03 151.283 504.826 151.694 504.518 152.045C504.213 152.393 503.818 152.665 503.335 152.861C502.854 153.053 502.299 153.149 501.669 153.149ZM509.484 153.144C508.996 153.144 508.562 153.06 508.181 152.891C507.8 152.718 507.498 152.465 507.276 152.13C507.058 151.792 506.948 151.371 506.948 150.867C506.948 150.443 507.026 150.087 507.182 149.798C507.338 149.51 507.55 149.278 507.818 149.102C508.087 148.927 508.392 148.794 508.733 148.705C509.078 148.615 509.439 148.552 509.817 148.516C510.261 148.469 510.619 148.426 510.891 148.386C511.162 148.343 511.36 148.28 511.482 148.197C511.605 148.115 511.666 147.992 511.666 147.83V147.8C511.666 147.485 511.567 147.241 511.368 147.069C511.172 146.897 510.894 146.81 510.533 146.81C510.152 146.81 509.848 146.895 509.623 147.064C509.397 147.23 509.248 147.438 509.175 147.69L507.217 147.531C507.316 147.067 507.512 146.666 507.803 146.328C508.095 145.987 508.471 145.725 508.932 145.543C509.396 145.357 509.933 145.264 510.543 145.264C510.967 145.264 511.373 145.314 511.761 145.413C512.152 145.513 512.498 145.667 512.8 145.876C513.105 146.085 513.345 146.353 513.521 146.681C513.696 147.006 513.784 147.395 513.784 147.849V153H511.776V151.941H511.716C511.593 152.18 511.429 152.39 511.224 152.572C511.018 152.751 510.771 152.892 510.483 152.995C510.195 153.094 509.862 153.144 509.484 153.144ZM510.09 151.683C510.402 151.683 510.677 151.621 510.915 151.499C511.154 151.373 511.341 151.204 511.477 150.991C511.613 150.779 511.681 150.539 511.681 150.271V149.46C511.615 149.503 511.524 149.543 511.408 149.58C511.295 149.613 511.167 149.644 511.025 149.674C510.882 149.701 510.74 149.725 510.597 149.749C510.455 149.768 510.326 149.787 510.21 149.803C509.961 149.84 509.744 149.898 509.558 149.977C509.373 150.057 509.228 150.165 509.126 150.3C509.023 150.433 508.972 150.599 508.972 150.798C508.972 151.086 509.076 151.306 509.285 151.459C509.497 151.608 509.765 151.683 510.09 151.683ZM518.991 153.124C518.411 153.124 517.886 152.975 517.415 152.677C516.948 152.375 516.577 151.933 516.301 151.349C516.03 150.763 515.894 150.044 515.894 149.192C515.894 148.317 516.035 147.589 516.316 147.009C516.598 146.426 516.973 145.99 517.44 145.702C517.911 145.41 518.426 145.264 518.986 145.264C519.414 145.264 519.77 145.337 520.055 145.483C520.343 145.625 520.575 145.804 520.751 146.02C520.93 146.232 521.066 146.441 521.159 146.646H521.223V142.818H523.336V153H521.248V151.777H521.159C521.059 151.989 520.918 152.2 520.736 152.408C520.557 152.614 520.324 152.785 520.035 152.92C519.75 153.056 519.402 153.124 518.991 153.124ZM519.662 151.439C520.004 151.439 520.292 151.346 520.527 151.161C520.766 150.972 520.948 150.708 521.074 150.37C521.203 150.032 521.268 149.636 521.268 149.182C521.268 148.728 521.205 148.333 521.079 147.999C520.953 147.664 520.771 147.405 520.532 147.223C520.294 147.041 520.004 146.95 519.662 146.95C519.314 146.95 519.021 147.044 518.782 147.233C518.544 147.422 518.363 147.684 518.24 148.018C518.118 148.353 518.056 148.741 518.056 149.182C518.056 149.626 518.118 150.019 518.24 150.36C518.366 150.698 518.547 150.963 518.782 151.156C519.021 151.344 519.314 151.439 519.662 151.439ZM525.828 155.864V145.364H527.916V146.646H528.01C528.103 146.441 528.237 146.232 528.413 146.02C528.592 145.804 528.824 145.625 529.109 145.483C529.397 145.337 529.755 145.264 530.183 145.264C530.74 145.264 531.253 145.41 531.724 145.702C532.195 145.99 532.571 146.426 532.852 147.009C533.134 147.589 533.275 148.317 533.275 149.192C533.275 150.044 533.137 150.763 532.862 151.349C532.591 151.933 532.219 152.375 531.749 152.677C531.281 152.975 530.758 153.124 530.178 153.124C529.767 153.124 529.417 153.056 529.129 152.92C528.844 152.785 528.61 152.614 528.428 152.408C528.245 152.2 528.106 151.989 528.01 151.777H527.945V155.864H525.828ZM527.901 149.182C527.901 149.636 527.964 150.032 528.09 150.37C528.216 150.708 528.398 150.972 528.637 151.161C528.875 151.346 529.165 151.439 529.507 151.439C529.851 151.439 530.143 151.344 530.382 151.156C530.62 150.963 530.801 150.698 530.923 150.36C531.049 150.019 531.112 149.626 531.112 149.182C531.112 148.741 531.051 148.353 530.928 148.018C530.806 147.684 530.625 147.422 530.387 147.233C530.148 147.044 529.855 146.95 529.507 146.95C529.162 146.95 528.87 147.041 528.632 147.223C528.396 147.405 528.216 147.664 528.09 147.999C527.964 148.333 527.901 148.728 527.901 149.182ZM537.555 148.585V153H535.437V142.818H537.495V146.711H537.585C537.757 146.26 538.035 145.907 538.42 145.652C538.804 145.393 539.287 145.264 539.867 145.264C540.397 145.264 540.859 145.38 541.254 145.612C541.651 145.841 541.96 146.171 542.178 146.602C542.401 147.029 542.51 147.541 542.507 148.138V153H540.389V148.516C540.392 148.045 540.273 147.679 540.031 147.417C539.792 147.155 539.457 147.024 539.026 147.024C538.738 147.024 538.483 147.085 538.261 147.208C538.042 147.331 537.87 147.51 537.744 147.745C537.621 147.977 537.558 148.257 537.555 148.585ZM548.374 153.149C547.601 153.149 546.933 152.985 546.37 152.657C545.81 152.326 545.377 151.865 545.072 151.275C544.768 150.682 544.615 149.994 544.615 149.212C544.615 148.423 544.768 147.733 545.072 147.143C545.377 146.55 545.81 146.089 546.37 145.761C546.933 145.43 547.601 145.264 548.374 145.264C549.146 145.264 549.812 145.43 550.372 145.761C550.936 146.089 551.37 146.55 551.675 147.143C551.98 147.733 552.132 148.423 552.132 149.212C552.132 149.994 551.98 150.682 551.675 151.275C551.37 151.865 550.936 152.326 550.372 152.657C549.812 152.985 549.146 153.149 548.374 153.149ZM548.384 151.509C548.735 151.509 549.028 151.409 549.263 151.21C549.499 151.008 549.676 150.733 549.795 150.385C549.918 150.037 549.979 149.641 549.979 149.197C549.979 148.753 549.918 148.357 549.795 148.009C549.676 147.661 549.499 147.385 549.263 147.183C549.028 146.981 548.735 146.88 548.384 146.88C548.029 146.88 547.731 146.981 547.489 147.183C547.25 147.385 547.069 147.661 546.947 148.009C546.827 148.357 546.768 148.753 546.768 149.197C546.768 149.641 546.827 150.037 546.947 150.385C547.069 150.733 547.25 151.008 547.489 151.21C547.731 151.409 548.029 151.509 548.384 151.509ZM556.377 148.585V153H554.259V145.364H556.278V146.711H556.367C556.536 146.267 556.82 145.915 557.217 145.657C557.615 145.395 558.097 145.264 558.664 145.264C559.194 145.264 559.657 145.38 560.051 145.612C560.446 145.844 560.752 146.176 560.971 146.607C561.19 147.034 561.299 147.545 561.299 148.138V153H559.181V148.516C559.184 148.048 559.065 147.684 558.823 147.422C558.581 147.157 558.248 147.024 557.824 147.024C557.539 147.024 557.287 147.085 557.068 147.208C556.853 147.331 556.684 147.51 556.561 147.745C556.442 147.977 556.38 148.257 556.377 148.585ZM567.198 153.149C566.413 153.149 565.737 152.99 565.17 152.672C564.606 152.35 564.172 151.896 563.867 151.31C563.562 150.72 563.41 150.022 563.41 149.217C563.41 148.431 563.562 147.742 563.867 147.148C564.172 146.555 564.602 146.093 565.155 145.761C565.712 145.43 566.365 145.264 567.114 145.264C567.618 145.264 568.087 145.345 568.521 145.508C568.958 145.667 569.339 145.907 569.664 146.229C569.992 146.55 570.248 146.955 570.43 147.442C570.612 147.926 570.703 148.492 570.703 149.142V149.724H564.255V148.411H568.71C568.71 148.106 568.643 147.836 568.511 147.601C568.378 147.366 568.194 147.182 567.959 147.049C567.727 146.913 567.457 146.845 567.149 146.845C566.827 146.845 566.542 146.92 566.294 147.069C566.048 147.215 565.856 147.412 565.717 147.661C565.578 147.906 565.506 148.179 565.503 148.481V149.729C565.503 150.107 565.573 150.433 565.712 150.708C565.854 150.983 566.055 151.195 566.313 151.344C566.572 151.494 566.878 151.568 567.233 151.568C567.468 151.568 567.684 151.535 567.879 151.469C568.075 151.402 568.242 151.303 568.382 151.17C568.521 151.038 568.627 150.875 568.7 150.683L570.659 150.812C570.559 151.283 570.355 151.694 570.047 152.045C569.742 152.393 569.348 152.665 568.864 152.861C568.383 153.053 567.828 153.149 567.198 153.149ZM579.189 147.541L577.25 147.661C577.217 147.495 577.146 147.346 577.036 147.213C576.927 147.077 576.783 146.969 576.604 146.89C576.428 146.807 576.218 146.766 575.972 146.766C575.644 146.766 575.368 146.835 575.142 146.974C574.917 147.11 574.804 147.293 574.804 147.521C574.804 147.704 574.877 147.858 575.023 147.984C575.169 148.11 575.419 148.211 575.774 148.287L577.156 148.565C577.898 148.718 578.452 148.963 578.816 149.301C579.181 149.639 579.363 150.083 579.363 150.634C579.363 151.134 579.216 151.573 578.921 151.951C578.629 152.329 578.228 152.624 577.718 152.836C577.21 153.045 576.625 153.149 575.963 153.149C574.952 153.149 574.146 152.939 573.546 152.518C572.95 152.094 572.6 151.517 572.497 150.788L574.58 150.678C574.643 150.987 574.796 151.222 575.038 151.384C575.28 151.543 575.59 151.623 575.968 151.623C576.339 151.623 576.637 151.552 576.862 151.409C577.091 151.263 577.207 151.076 577.21 150.847C577.207 150.655 577.126 150.498 576.967 150.375C576.808 150.249 576.562 150.153 576.231 150.087L574.909 149.823C574.163 149.674 573.608 149.415 573.243 149.048C572.882 148.68 572.701 148.211 572.701 147.641C572.701 147.15 572.834 146.728 573.099 146.373C573.367 146.018 573.744 145.745 574.227 145.553C574.715 145.36 575.285 145.264 575.938 145.264C576.902 145.264 577.661 145.468 578.215 145.876C578.771 146.283 579.096 146.839 579.189 147.541Z" fill="#474747"/>
<rect x="633" y="21" width="104" height="104" rx="52" fill="white"/>
<g clip-path="url(#clip1_309_852)">
<path d="M695.2 41.2C693.938 41.6 692.95 42.525 692.513 43.6875C692.3 44.2625 692.275 44.65 692.275 46.8875C692.288 49.125 692.263 49.5625 692.025 50.4C691.563 52.1125 690.925 53.075 689.763 53.8625C688.475 54.7375 687.125 55.325 685.625 55.6875C684.3 55.9875 684.163 55.9625 683.988 55.3375C683.588 53.8125 682.263 51.6 681.163 50.625C679.525 49.1625 676.125 48.35 674.15 48.9375C673.1 49.25 672.3 50.125 672.075 51.1875C672.038 51.3875 671.775 54.45 671.5 57.9875L670.988 64.4125L666.55 75.1125C664.113 81 662.038 85.9125 661.963 86.025C661.875 86.1375 660.35 87.475 658.563 89C656.775 90.5125 655.038 92.075 654.713 92.475C653.125 94.375 652.613 97.025 653.375 99.375C653.7 100.35 654.1 101.038 655.313 102.625C656.7 104.45 657.438 104.85 659.638 104.963C662.95 105.138 666.775 104.325 670.075 102.75C672.45 101.625 669.563 103.713 702.263 79.5375C711.413 72.7625 711.7 72.55 713.25 70.925C714.55 69.5625 715.45 68.3375 716.125 67C716.988 65.2875 717.188 64.175 716.813 63.1125C716.538 62.35 716.125 61.8625 715 61C714.463 60.575 713.738 59.8875 713.4 59.475C712.8 58.75 712.6 58.425 711.088 55.6625C709.238 52.2875 706.625 48.875 703.638 45.9C701.813 44.0875 699.213 41.9375 698.3 41.4875C697.363 41.025 696.125 40.9 695.2 41.2ZM697 43.25C697.988 43.525 702.3 47.375 704.488 49.9375C706.275 52.025 709.05 55.9875 708.975 56.325C708.95 56.4 708.038 57.1375 706.938 57.9625C705.775 58.825 704.8 59.6625 704.6 59.95C704.125 60.6375 703.738 61.55 703.638 62.225L703.563 62.8L702.313 63.5C697.05 66.4375 693.025 70.5375 690.113 75.925L689.438 77.1625L688.063 77.9875C682.875 81.1375 680.413 83.25 676.188 88.1875C670.15 95.2625 663.813 99.125 658.275 99.125C657.213 99.125 655.813 98.9375 655.525 98.7625C655.438 98.7125 655.3 98.325 655.225 97.9C654.988 96.5875 655.45 94.8875 656.338 93.8125C656.65 93.45 662.95 88 663.438 87.675C663.575 87.5875 665.913 86.55 668.625 85.3625C671.488 84.125 673.913 82.9875 674.4 82.6625C675.45 81.975 676.475 80.85 677.038 79.775C677.275 79.3125 679.113 74.2375 681.113 68.5125C683.125 62.775 684.775 58.0625 684.788 58.05C684.8 58.025 685.25 57.925 685.763 57.8125C687.113 57.5375 688.313 57.1125 689.588 56.45C691.675 55.375 692.85 54.175 693.6 52.35C694.263 50.75 694.425 49.725 694.425 46.9125C694.438 44.0375 694.475 43.9375 695.5 43.4C696.113 43.1 696.35 43.075 697 43.25ZM677.7 51.175C679.15 51.5625 680.1 52.325 680.975 53.7875C681.413 54.5125 682.025 55.9 681.938 55.975C681.913 56 681.425 55.9625 680.863 55.8875C677.925 55.4875 676.15 55.975 674.475 57.625C674 58.075 673.625 58.375 673.625 58.2875C673.625 57.475 674.163 51.625 674.25 51.4C674.313 51.25 674.5 51.0625 674.65 51C675.013 50.8375 676.863 50.95 677.7 51.175ZM681.075 58.0375L682.463 58.1875L678.938 68.2625C677 73.8 675.263 78.6125 675.063 78.95C674.55 79.825 673.538 80.7875 672.65 81.2375C672 81.5625 665.038 84.625 664.938 84.625C664.925 84.625 665.363 83.5125 665.925 82.1625L666.95 79.7125L669.95 78.8625C673.188 77.9375 673.5 77.775 673.5 76.9875C673.5 76.5 673.013 76 672.538 76C672.338 76 671.3 76.25 670.225 76.5625C669.15 76.875 668.213 77.125 668.138 77.125C668.075 77.125 668.263 76.55 668.55 75.85L669.088 74.5625L670.95 74.0375C674.938 72.9 675 72.8625 675 72.0625C675 71.5125 674.538 71 674.063 71C673.875 71 672.95 71.225 672 71.5C671.05 71.775 670.238 72 670.213 72C670.15 72 671.113 69.6 671.238 69.475C671.275 69.425 672.363 69.0875 673.625 68.725C676.175 68.0125 676.5 67.825 676.5 67.075C676.5 66.75 676.413 66.575 676.113 66.325C675.9 66.15 675.65 66 675.538 66C675.388 66 674.5 66.2375 672.475 66.825C672.313 66.875 672.388 66.6125 672.8 65.6125C673.1 64.9125 673.425 64.3 673.513 64.25C673.613 64.2 674.538 63.9125 675.563 63.625C676.988 63.2375 677.5 63.0375 677.725 62.8C678.075 62.4125 678.075 61.8875 677.738 61.45C677.413 61.025 676.9 61.025 675.525 61.425C674.963 61.5875 674.5 61.675 674.5 61.6125C674.5 61.2875 675.275 59.85 675.7 59.375C676.975 57.975 678 57.7125 681.075 58.0375ZM712.025 61.175C712.413 61.6125 713.163 62.2875 713.688 62.6875C714.213 63.075 714.7 63.55 714.763 63.7375C715.275 65.0375 712.913 68.65 709.963 71.1C709.375 71.5875 709 71.8125 708.963 71.7125C708.925 71.6375 708.225 69.925 707.4 67.925C705.713 63.8375 705.575 63.4125 705.675 62.7C705.838 61.6375 706.325 61.0625 708.25 59.625L710.05 58.2875L710.675 59.3375C711.025 59.9125 711.638 60.7375 712.025 61.175ZM705.55 69.025C706.438 71.175 707.163 73 707.175 73.0875C707.188 73.1625 703.113 76.25 698.125 79.925C687.738 87.6125 688.738 87.1125 689.313 84.325C690.863 76.6375 695.538 70.0375 702.313 65.9625C703.075 65.5 703.75 65.125 703.813 65.125C703.888 65.125 704.663 66.8875 705.55 69.025ZM688.075 80.775C687.338 83.3375 686.75 86.375 686.75 87.65C686.75 87.95 686.675 88.2875 686.6 88.4C686.413 88.625 672.25 99.0875 671.313 99.6875C669.713 100.713 667.5 101.663 665.563 102.163C663.6 102.663 662.575 102.8 660.563 102.8C658.4 102.813 658.013 102.7 657.375 101.825L656.988 101.313L658.838 101.225C661.013 101.138 662.75 100.738 664.875 99.8375C669.25 98 673.95 94.225 678.138 89.1875C680.025 86.9125 681.913 85.025 683.85 83.4625C685.288 82.3125 687.838 80.5125 688.05 80.5C688.1 80.5 688.113 80.625 688.075 80.775Z" fill="#8F8F8F"/>
<path d="M700.75 70.3375C700.45 70.725 700.45 71.0625 700.763 72.8125C701.013 74.2625 701.85 74.8 702.638 74.0125C703.063 73.5875 703.063 73.55 702.813 72.0625C702.5 70.2625 702.338 70 701.45 70C701.125 70 700.95 70.0875 700.75 70.3375Z" fill="#8F8F8F"/>
<path d="M696.9 73.125C696.337 73.3625 696.25 73.9 696.525 75.4375C696.8 77 697.037 77.375 697.7 77.375C698.275 77.375 698.487 77.2625 698.7 76.85C698.862 76.525 698.862 76.3625 698.637 75.125C698.35 73.5625 698.237 73.2875 697.8 73.125C697.425 72.975 697.275 72.975 696.9 73.125Z" fill="#8F8F8F"/>
</g>
<path d="M665.499 144.593V142.818H673.861V144.593H670.744V153H668.616V144.593H665.499ZM678.321 153.149C677.536 153.149 676.86 152.99 676.293 152.672C675.73 152.35 675.295 151.896 674.99 151.31C674.685 150.72 674.533 150.022 674.533 149.217C674.533 148.431 674.685 147.742 674.99 147.148C675.295 146.555 675.725 146.093 676.278 145.761C676.835 145.43 677.488 145.264 678.237 145.264C678.741 145.264 679.21 145.345 679.644 145.508C680.081 145.667 680.462 145.907 680.787 146.229C681.115 146.55 681.371 146.955 681.553 147.442C681.735 147.926 681.826 148.492 681.826 149.142V149.724H675.378V148.411H679.833C679.833 148.106 679.766 147.836 679.634 147.601C679.501 147.366 679.317 147.182 679.082 147.049C678.85 146.913 678.58 146.845 678.272 146.845C677.95 146.845 677.665 146.92 677.417 147.069C677.171 147.215 676.979 147.412 676.84 147.661C676.701 147.906 676.629 148.179 676.626 148.481V149.729C676.626 150.107 676.696 150.433 676.835 150.708C676.977 150.983 677.178 151.195 677.436 151.344C677.695 151.494 678.002 151.568 678.356 151.568C678.592 151.568 678.807 151.535 679.002 151.469C679.198 151.402 679.365 151.303 679.505 151.17C679.644 151.038 679.75 150.875 679.823 150.683L681.782 150.812C681.682 151.283 681.478 151.694 681.17 152.045C680.865 152.393 680.471 152.665 679.987 152.861C679.506 153.053 678.951 153.149 678.321 153.149ZM679.186 144.449L678.187 143.236L677.188 144.449H675.383V144.379L677.397 142.192H678.973L680.991 144.379V144.449H679.186ZM686.076 148.585V153H683.958V145.364H685.977V146.711H686.066C686.235 146.267 686.519 145.915 686.917 145.657C687.314 145.395 687.797 145.264 688.363 145.264C688.894 145.264 689.356 145.38 689.75 145.612C690.145 145.844 690.451 146.176 690.67 146.607C690.889 147.034 690.998 147.545 690.998 148.138V153H688.88V148.516C688.884 148.048 688.764 147.684 688.522 147.422C688.28 147.157 687.947 147.024 687.523 147.024C687.238 147.024 686.986 147.085 686.767 147.208C686.552 147.331 686.383 147.51 686.26 147.745C686.141 147.977 686.08 148.257 686.076 148.585ZM693.417 153V145.364H695.535V153H693.417ZM694.481 144.379C694.166 144.379 693.896 144.275 693.671 144.066C693.449 143.854 693.338 143.6 693.338 143.305C693.338 143.014 693.449 142.763 693.671 142.555C693.896 142.343 694.166 142.237 694.481 142.237C694.796 142.237 695.065 142.343 695.287 142.555C695.512 142.763 695.625 143.014 695.625 143.305C695.625 143.6 695.512 143.854 695.287 144.066C695.065 144.275 694.796 144.379 694.481 144.379ZM704.336 147.541L702.397 147.661C702.364 147.495 702.292 147.346 702.183 147.213C702.074 147.077 701.929 146.969 701.75 146.89C701.575 146.807 701.364 146.766 701.119 146.766C700.791 146.766 700.514 146.835 700.289 146.974C700.063 147.11 699.951 147.293 699.951 147.521C699.951 147.704 700.024 147.858 700.169 147.984C700.315 148.11 700.565 148.211 700.92 148.287L702.302 148.565C703.045 148.718 703.598 148.963 703.963 149.301C704.327 149.639 704.51 150.083 704.51 150.634C704.51 151.134 704.362 151.573 704.067 151.951C703.775 152.329 703.374 152.624 702.864 152.836C702.357 153.045 701.772 153.149 701.109 153.149C700.098 153.149 699.293 152.939 698.693 152.518C698.096 152.094 697.747 151.517 697.644 150.788L699.727 150.678C699.79 150.987 699.942 151.222 700.184 151.384C700.426 151.543 700.736 151.623 701.114 151.623C701.485 151.623 701.783 151.552 702.009 151.409C702.238 151.263 702.354 151.076 702.357 150.847C702.354 150.655 702.272 150.498 702.113 150.375C701.954 150.249 701.709 150.153 701.377 150.087L700.055 149.823C699.309 149.674 698.754 149.415 698.39 149.048C698.028 148.68 697.848 148.211 697.848 147.641C697.848 147.15 697.98 146.728 698.245 146.373C698.514 146.018 698.89 145.745 699.374 145.553C699.861 145.36 700.431 145.264 701.084 145.264C702.049 145.264 702.808 145.468 703.361 145.876C703.918 146.283 704.243 146.839 704.336 147.541Z" fill="#474747"/>
<defs>
<filter id="filter0_d_309_852" x="0" y="0" width="154" height="154" filterUnits="userSpaceOnUse" color-interpolation-filters="sRGB">
<feFlood flood-opacity="0" result="BackgroundImageFix"/>
<feColorMatrix in="SourceAlpha" type="matrix" values="0 0 0 0 0 0 0 0 0 0 0 0 0 0 0 0 0 0 127 0" result="hardAlpha"/>
<feOffset dy="4"/>
<feGaussianBlur stdDeviation="12.5"/>
<feComposite in2="hardAlpha" operator="out"/>
<feColorMatrix type="matrix" values="0 0 0 0 0 0 0 0 0 0 0 0 0 0 0 0 0 0 0.05 0"/>
<feBlend mode="normal" in2="BackgroundImageFix" result="effect1_dropShadow_309_852"/>
<feBlend mode="normal" in="SourceGraphic" in2="effect1_dropShadow_309_852" result="shape"/>
</filter>
<clipPath id="clip0_309_852">
<rect width="64" height="64" fill="white" transform="translate(45 41)"/>
</clipPath>
<clipPath id="clip1_309_852">
<rect width="64" height="64" fill="white" transform="translate(653 41)"/>
</clipPath>
</defs>
</svg>
